# xmcd CD database file
#
# Track frame offsets:
#	150
#	22387
#	33767
#	52577
#	69595
#	92765
#	112472
#	123402
#	137760
#	153230
#	163472
#	185745
#	199785
#	209835
#	224185
#	235622
#	246160
#	269380
#	288172
#
# Disc length: 4223 seconds
#
# Revision: 7
# Processed by: cddbd v1.5.2PL0 Copyright (c) Steve Scherf et al.
# Submitted via: CDex 1.70beta2
#
DISCID=2e107d13
DTITLE=Various Artist - Chill:Brazil 2 CD1
DYEAR=2003
DGENRE=Jazz
TTITLE0=Joyce - Demor
TTITLE1=Tom Jobim - She's A Carioca
TTITLE2=Joo Gilberto - Triste
TTITLE3=Preta Gil - Espelhos D'agua
TTITLE4=Milton Nascimento - Ana Maria
TTITLE5=Tnia Maya - Tudo Por Acaso
TTITLE6=Sonia Rosa - Mas No D
TTITLE7=Osmar Milito - Up, Up and Away
TTITLE8=Gilberto Gil - O Lugar Do Nosso Amor
TTITLE9=Johnny Alf - Sidarta
TTITLE10=Azymuth - Tamborim, Cuica, Ganz E Berimbau
TTITLE11=Conjunto Som 4 - Balano Zona Sul
TTITLE12=Marcos Valle - Crickets Sing For Ana Maria
TTITLE13=Z Maria Featuring Jorge Ben - Mas Que Nada
TTITLE14=Zezinho - Arrasto
TTITLE15=Pedroti - Bebe Vobora
TTITLE16=Ramatis Featuring Rose Max - Sem Complicao
TTITLE17=Tutty Moreno - Algo Sobre Ns
TTITLE18=In Soul - Drum'n Bossa
EXTD=YEAR: 2003
EXTT0=
EXTT1=
EXTT2=
EXTT3=
EXTT4=
EXTT5=
EXTT6=
EXTT7=
EXTT8=
EXTT9=
EXTT10=
EXTT11=
EXTT12=
EXTT13=
EXTT14=
EXTT15=
EXTT16=
EXTT17=
EXTT18=
PLAYORDER=
